<?xml version="1.0" encoding="UTF-8"?>
<svg width="275.04" height="62.29" xmlns="http://www.w3.org/2000/svg" xmlns:svg="http://www.w3.org/2000/svg" xmlns:se="http://svg-edit.googlecode.com" data-name="Layer 1">
 <style type="text/css">path{fill:currentColor}</style>
 <title>GreenMatters</title>
 <g class="layer">
  <title>Layer 1</title>
  <path d="m265.56,31.79q-4.93,-0.06 -7.43,-2.73a6.55,6.55 0 0 1 -1.89,-4.95a8.18,8.18 0 0 1 2.81,-5.87a9,9 0 0 1 6.3,-2.4a12.13,12.13 0 0 1 5.79,1.35a7.19,7.19 0 0 1 3.86,4.66a1.19,1.19 0 0 1 -0.88,1.48a1.1,1.1 0 0 1 -0.92,-0.12a1.13,1.13 0 0 1 -0.55,-0.74a4.93,4.93 0 0 0 -2.87,-3.24a9.91,9.91 0 0 0 -4.41,-0.94a6.69,6.69 0 0 0 -4.64,1.71a5.86,5.86 0 0 0 -2.05,4.23a4.12,4.12 0 0 0 1.23,3.14q1.79,1.91 5.68,2a1.23,1.23 0 0 1 1.21,1.25a1.23,1.23 0 0 1 -1.23,1.19l-0.01,-0.02zm-5.42,12.21a7.25,7.25 0 0 1 -3.86,-4.68a1.22,1.22 0 0 1 0.12,-0.92a1.2,1.2 0 0 1 0.76,-0.55a1.22,1.22 0 0 1 0.92,0.12a1.2,1.2 0 0 1 0.55,0.74a5,5 0 0 0 2.87,3.26a10.1,10.1 0 0 0 4.41,0.92a6.69,6.69 0 0 0 4.62,-1.72a5.84,5.84 0 0 0 2.05,-4.21a4.15,4.15 0 0 0 -1.23,-3.16q-1.79,-1.91 -5.68,-2a1.14,1.14 0 0 1 -0.86,-0.37a1.19,1.19 0 0 1 0,-1.72a1.17,1.17 0 0 1 0.86,-0.35q4.93,0.08 7.43,2.75a6.41,6.41 0 0 1 1.9,4.89a8.11,8.11 0 0 1 -2.79,5.87a9,9 0 0 1 -6.3,2.4a12.28,12.28 0 0 1 -5.77,-1.27z" id="svg_1"/>
  <path d="m40.13,15.81a8.66,8.66 0 0 1 6.07,2.32a7.36,7.36 0 0 1 2.5,5.6a7.32,7.32 0 0 1 -2.05,5.13a8.4,8.4 0 0 1 -5.07,2.67l5.85,11.92a1.15,1.15 0 0 1 0.06,0.92a1.19,1.19 0 0 1 -0.62,0.7a1.18,1.18 0 0 1 -0.53,0.12a1.12,1.12 0 0 1 -1.09,-0.68l-6.33,-12.86l-6.85,0l0,12.13a1.23,1.23 0 0 1 -1.23,1.22a1.19,1.19 0 0 1 -1.21,-1.21l0,-26.79a1.17,1.17 0 0 1 0.37,-0.85a1.22,1.22 0 0 1 0.86,-0.35l9.27,0.01zm6.16,7.92a5,5 0 0 0 -1.81,-3.88a6.29,6.29 0 0 0 -4.35,-1.62l-8.06,0l0,11l8.21,0a6.21,6.21 0 0 0 4.25,-1.64a5,5 0 0 0 1.76,-3.86z" id="svg_2"/>
  <path d="m53.29,45.19a1.26,1.26 0 0 1 -1.23,-1.19l0,-27a1.14,1.14 0 0 1 0.37,-0.86a1.09,1.09 0 0 1 0.86,-0.37l16.29,0a1.14,1.14 0 0 1 0.86,0.37a1.18,1.18 0 0 1 0.37,0.86a1.2,1.2 0 0 1 -0.37,0.88a1.17,1.17 0 0 1 -0.86,0.35l-15.06,0l0,11l11.27,0a1.22,1.22 0 0 1 0.86,2.09a1.14,1.14 0 0 1 -0.86,0.37l-11.26,0l0,11l15.06,0a1.23,1.23 0 0 1 0,2.46l-16.3,0.04z" id="svg_3"/>
  <path d="m75.6,45.19a1.26,1.26 0 0 1 -1.23,-1.19l0,-27a1.14,1.14 0 0 1 0.37,-0.86a1.09,1.09 0 0 1 0.86,-0.42l16.3,0.04a1.14,1.14 0 0 1 0.86,0.37a1.18,1.18 0 0 1 0.37,0.86a1.2,1.2 0 0 1 -0.37,0.88a1.17,1.17 0 0 1 -0.86,0.35l-15.06,0l0,11l11.26,0a1.22,1.22 0 0 1 0.9,2.1a1.14,1.14 0 0 1 -0.86,0.37l-11.31,0l0,11l15.07,0a1.23,1.23 0 0 1 0,2.46l-16.3,0.04z" id="svg_4"/>
  <path d="m120.16,44l0,0a0.39,0.39 0 0 1 0,0.12a0.34,0.34 0 0 1 0,0.1a0.64,0.64 0 0 1 0,0.12l0,0.1a0.26,0.26 0 0 1 -0.06,0.1l-0.06,0.1l-0.08,0.1l-0.08,0.08l-0.06,0s0,0 0,0l-0.06,0l-0.12,0.06l-0.08,0l-0.14,0l-0.08,0l-0.23,0l-0.25,0l-0.08,0l-0.16,-0.06l-0.08,-0.06l-0.14,-0.08l-0.08,-0.06l-0.06,-0.06l-0.06,-0.06l0,0l0,0l-19.02,-23.98l0,23.48a1.23,1.23 0 0 1 -2.46,0l0,-27a1.13,1.13 0 0 1 0.82,-1.24a1.13,1.13 0 0 1 1.37,0.41l18.8,24.19" id="svg_5"/>
  <path d="m108,18a1.36,1.36 0 0 1 0.4,-2.12a1.41,1.41 0 0 1 1.82,0.61l15.38,20.16l12.23,-20.21a1.12,1.12 0 0 1 1.37,-0.55a1.11,1.11 0 0 1 0.9,1.17l0,26.94a1.2,1.2 0 0 1 -0.37,0.88a1.17,1.17 0 0 1 -0.86,0.35a1.22,1.22 0 0 1 -0.86,-0.35a1.24,1.24 0 0 1 -0.35,-0.88l0,-22.55l-11,18.2l0,0l0,0l-0.08,0.1l-0.08,0.08l-0.08,0.08l-0.1,0.08l0,0l-0.06,0l-0.12,0.06l-0.1,0l-0.12,0l-0.1,0l-0.12,0l-0.12,0l-0.1,0l-0.12,0l-0.1,0l-0.12,-0.06l0,0a0,0 0 0 0 0,0l0,0l-0.1,-0.08l-0.08,-0.08l-0.08,-0.08l-0.08,-0.1l0,0l0,0" fill="black" id="svg_6"/>
  <path d="m173.77,18.21l-8.11,0a1.24,1.24 0 0 1 -0.88,-0.35a1.17,1.17 0 0 1 -0.35,-0.86a1.17,1.17 0 0 1 0.35,-0.86a1.2,1.2 0 0 1 0.88,-0.37l18.65,0a1.14,1.14 0 0 1 0.86,0.37a1.14,1.14 0 0 1 0.37,0.86a1.14,1.14 0 0 1 -0.37,0.86a1.17,1.17 0 0 1 -0.86,0.35l-8.11,0l0,25.79a1.19,1.19 0 0 1 -1.2,1.19a1.22,1.22 0 0 1 -0.86,-0.35a1.24,1.24 0 0 1 -0.35,-0.88l-0.02,-25.75z" id="svg_7"/>
  <path d="m196.93,18.21l-8.11,0a1.24,1.24 0 0 1 -0.88,-0.35a1.17,1.17 0 0 1 -0.34,-0.86a1.17,1.17 0 0 1 0.35,-0.86a1.2,1.2 0 0 1 0.88,-0.37l18.65,0a1.14,1.14 0 0 1 0.86,0.37a1.14,1.14 0 0 1 0.37,0.86a1.14,1.14 0 0 1 -0.37,0.86a1.17,1.17 0 0 1 -0.86,0.35l-8.11,0l0,25.79a1.19,1.19 0 0 1 -1.23,1.23a1.22,1.22 0 0 1 -0.86,-0.35a1.24,1.24 0 0 1 -0.35,-0.88l0,-25.79z" id="svg_8"/>
  <path d="m212.66,45.19a1.26,1.26 0 0 1 -1.24,-1.19l0,-27a1.14,1.14 0 0 1 0.37,-0.86a1.09,1.09 0 0 1 0.86,-0.37l16.29,0a1.14,1.14 0 0 1 0.86,0.37a1.18,1.18 0 0 1 0.37,0.86a1.2,1.2 0 0 1 -0.37,0.88a1.17,1.17 0 0 1 -0.86,0.35l-15.06,0l0,11l11.27,0a1.22,1.22 0 0 1 0.86,2.09a1.14,1.14 0 0 1 -0.86,0.37l-11.26,0l0,11l15.06,0a1.23,1.23 0 0 1 0,2.46l-16.29,0.04z" id="svg_9"/>
  <path d="m245.06,15.81a8.66,8.66 0 0 1 6.07,2.32a7.36,7.36 0 0 1 2.5,5.6a7.32,7.32 0 0 1 -2.05,5.13a8.4,8.4 0 0 1 -5.07,2.67l5.85,11.92a1.15,1.15 0 0 1 0.06,0.92a1.19,1.19 0 0 1 -0.62,0.7a1.18,1.18 0 0 1 -0.53,0.12a1.12,1.12 0 0 1 -1.09,-0.68l-6.34,-12.87l-6.84,0l0,12.14a1.23,1.23 0 0 1 -1.24,1.22a1.19,1.19 0 0 1 -1.21,-1.21l0,-26.79a1.17,1.17 0 0 1 0.35,-0.86a1.22,1.22 0 0 1 0.86,-0.35l9.3,0.02zm6.16,7.92a5,5 0 0 0 -1.81,-3.88a6.29,6.29 0 0 0 -4.35,-1.62l-8.06,0l0,11l8.21,0a6.21,6.21 0 0 0 4.25,-1.64a5,5 0 0 0 1.75,-3.86l0.01,0z" id="svg_10"/>
  <path d="m144.93,45a1.18,1.18 0 0 1 -0.7,-0.64a1.2,1.2 0 0 1 0,-0.92l11.19,-27s0,0 0,-0.08a0.16,0.16 0 0 0 0,-0.06a0.55,0.55 0 0 1 0.1,-0.14l0,0l0.14,-0.16l0,0l0.12,-0.08l0.08,0l0.14,-0.08l0,0l0,0s0,0 0,0l0.12,0l0.06,0l0.21,0l0.18,0l0.06,0l0.14,0l0,0l0,0l0,0l0.16,0.08l0.06,0l0.12,0.08l0,0l0.14,0.16l0,0l0,0a0.55,0.55 0 0 1 0.1,0.14a0.16,0.16 0 0 0 0,0.06q0,0.1 0,0.08l11.07,27.25a1.09,1.09 0 0 1 0,0.92a1.21,1.21 0 0 1 -1.64,0.57a1.12,1.12 0 0 1 -0.62,-0.7l-9.6,-23.97l-10.07,23.73a1.12,1.12 0 0 1 -0.62,0.7l-0.45,0.23l-0.49,-0.17z" id="svg_11"/>
  <path d="m26.28,29.73a1.21,1.21 0 0 0 0,-0.17s0,0 0,-0.07a1.21,1.21 0 0 0 0,-0.15a1.27,1.27 0 0 0 -1.28,-0.88a1.26,1.26 0 0 0 -0.27,0l-5.86,0a1.24,1.24 0 1 0 0,2.47l4.85,0l-0.06,7.57a12,12 0 0 1 -8,3.65a11.89,11.89 0 0 1 -8.95,-3a11.89,11.89 0 0 1 -4.2,-8.46a11.91,11.91 0 0 1 3,-9a11.89,11.89 0 0 1 8.49,-4.16a12.1,12.1 0 0 1 7.7,2a1.08,1.08 0 0 0 0.92,0.19a1.17,1.17 0 0 0 0.79,-0.53a1.18,1.18 0 0 0 0.19,-0.92a1.17,1.17 0 0 0 -0.53,-0.79a14.43,14.43 0 0 0 -9.23,-2.48a14.25,14.25 0 0 0 -10.16,5.1a14.27,14.27 0 0 0 -3.68,10.77a14.24,14.24 0 0 0 5.1,10.13a14.24,14.24 0 0 0 10.75,3.64a14.35,14.35 0 0 0 9.72,-4.54a1.18,1.18 0 0 0 0.35,-0.79a1.26,1.26 0 0 0 0.28,-0.77l0.08,-8.82l0,0l0,0.01z" id="svg_12"/>
 </g>
</svg>